<svg width="0" height="0" class="hidden">
  <symbol aria-hidden="true" data-prefix="fas" data-icon="times" xmlns="http://www.w3.org/2000/svg" viewBox="0 0 352 512" id="cross">
    <path fill="currentColor" d="M242.72 256l100.07-100.07c12.28-12.28 12.28-32.19 0-44.48l-22.24-22.24c-12.28-12.28-32.19-12.28-44.48 0L176 189.28 75.93 89.21c-12.28-12.28-32.19-12.28-44.48 0L9.21 111.45c-12.28 12.28-12.28 32.19 0 44.48L109.28 256 9.21 356.07c-12.28 12.28-12.28 32.19 0 44.48l22.24 22.24c12.28 12.28 32.2 12.28 44.48 0L176 322.72l100.07 100.07c12.28 12.28 32.2 12.28 44.48 0l22.24-22.24c12.28-12.28 12.28-32.19 0-44.48L242.72 256z"></path>
  </symbol>
  <symbol xmlns="http://www.w3.org/2000/svg" viewBox="0 0 32 32" id="device">
    <circle fill="#5FFFBA" cx="17" cy="28" r="1"></circle>
    <path fill="#2D2220" d="M13 4h6v1h-6z"></path>
    <g fill="#2D2220">
      <path d="M13 4v1h6V4h-6zm0 0v1h6V4h-6zm0 0v1h6V4h-6zm0 0v1h6V4h-6zm-3 20v1h12v-1H10zm3-20v1h6V4h-6zm-3 20v1h12v-1H10zm3-20v1h6V4h-6zm-3 20v1h12v-1H10zM23 2H9c-.55 0-1 .45-1 1v5h1V7h14v21c0 .55-.45 1-1 1H10c-.55 0-1-.45-1-1V13H8v16c0 .55.45 1 1 1h14c.55 0 1-.45 1-1V3c0-.55-.45-1-1-1zm0 4H9V4c0-.55.45-1 1-1h12c.55 0 1 .45 1 1v2zm-1 18H10v1h12v-1zM13 5h6V4h-6v1zm-3 19v1h12v-1H10zm3-20v1h6V4h-6zm0 0v1h6V4h-6zm0 0v1h6V4h-6zm0 0v1h6V4h-6z"></path>
      <path d="M13 4h6v1h-6z"></path>
    </g>
    <path fill="#2D2220" d="M13 4h6v1h-6z"></path>
    <path fill="#2D2220" d="M13 4h6v1h-6z"></path>
    <path fill="#5FFFBA" d="M14 5h6v1h-6zm1 2h1v17h-1zm-2 0h1v17h-1zm4 0h6v17h-6z"></path>
    <circle fill="#2D2220" cx="16" cy="27" r="1"></circle>
    <path fill="#2D2220" d="M10 9.5a.5.5 0 0 0-.5-.5h-2a.5.5 0 0 0 0 1h2a.5.5 0 0 0 .5-.5zm0 2a.5.5 0 0 0-.5-.5h-2a.5.5 0 0 0 0 1h2a.5.5 0 0 0 .5-.5z"></path>
  </symbol>
  <symbol xmlns="http://www.w3.org/2000/svg" viewBox="0 0 32 32" id="laptop">
    <path fill="#2D2220" d="M26 7v13H15.5c-.28 0-.5-.22-.5-.5s.22-.5.5-.5H25V8H7v11h1.5c.28 0 .5.22.5.5s-.22.5-.5.5H6V7h20z"></path>
    <path fill="#FFD561" d="M14 8h11v11H14zm-2 0h1v11h-1zm-2 0h1v11h-1zM1 28h30v1H1z"></path>
    <path fill="#2D2220" d="M23 5.5c0 .28-.22.5-.5.5h-8c-.28 0-.5-.22-.5-.5s.22-.5.5-.5h8c.28 0 .5.22.5.5z"></path>
    <path fill="#2D2220" d="M30.86 26.49l-3-5a.975.975 0 0 0-.23-.26c.22-.29.37-.68.37-1.23V7s0-2-2-2h-2 .5c-.28 0-.5.22-.5.5s.22.5.5.5H26c.81 0 .99.55 1 1v13c0 .81-.55.99-1 1H6c-.81 0-.99-.55-1-1V7c0-.81.55-.99 1-1h16.5c.279 0 .5-.22.5-.5s-.221-.5-.5-.5H6S4 5 4 7v13s0 .66.38 1.22c-.09.07-.18.16-.24.271l-3 5c-.18.3-.19.689-.01 1 .18.319.51.509.87.509h28c.36 0 .69-.19.87-.51.18-.31.17-.7-.01-1zM2 27l3-5h22l3 5H2z"></path>
    <path fill="#2D2220" d="M14 19.5a.5.5 0 0 0-.5-.5h-3a.5.5 0 0 0 0 1h3a.5.5 0 0 0 .5-.5zm5 6a.5.5 0 0 0-.5-.5h-13a.5.5 0 0 0 0 1h13a.5.5 0 0 0 .5-.5zm4 0a.5.5 0 0 0-.5-.5h-1a.5.5 0 0 0 0 1h1a.5.5 0 0 0 .5-.5zm4 0a.5.5 0 0 0-.5-.5h-1a.5.5 0 0 0 0 1h1a.5.5 0 0 0 .5-.5zm-2-2a.5.5 0 0 0-.5-.5h-9a.5.5 0 0 0 0 1h9a.5.5 0 0 0 .5-.5zm-12 0a.5.5 0 0 0-.5-.5h-1a.5.5 0 0 0 0 1h1a.5.5 0 0 0 .5-.5zm-4 0a.5.5 0 0 0-.5-.5h-1a.5.5 0 0 0 0 1h1a.5.5 0 0 0 .5-.5z"></path>
  </symbol>
  <symbol xmlns="http://www.w3.org/2000/svg" viewBox="0 0 32 32" id="monitor">
    <path fill="#FFD561" d="M12 8h1v14h-1zm-2 0h1v14h-1zm4 0v14h14V10s-1-2-2-2H14z"></path>
    <path fill="#2D2220" d="M28.5 6h-25C2.67 6 2 6.67 2 7.5v16c0 .83.67 1.5 1.5 1.5H15v2h-5v1h12v-1h-5v-2h11.5c.83 0 1.5-.67 1.5-1.5v-16c0-.83-.67-1.5-1.5-1.5zm.5 15H6v1h23v1.5c0 .28-.22.5-.5.5h-25c-.28 0-.5-.22-.5-.5v-16c0-.28.22-.5.5-.5h25c.28 0 .5.22.5.5V21z"></path>
    <path fill="#2D2220" d="M28 9.5v10h-1v-10c0-.4-.28-.49-.51-.5H5.5c-.4 0-.49.27-.5.51V22H4V9.5C4 8.9 4.4 8 5.5 8h21c.6 0 1.5.4 1.5 1.5z"></path>
    <path fill="#FFD561" d="M11 28h8v1h-8zm9 0h3v1h-3z"></path>
  </symbol>
</svg>